<svg width="249" height="97" viewBox="0 0 249 97" fill="none" xmlns="http://www.w3.org/2000/svg">
<mask id="mask0_2_2" style="mask-type:alpha" maskUnits="userSpaceOnUse" x="0" y="0" width="249" height="97">
<rect width="249" height="97" rx="20" fill="#D9D9D9"/>
</mask>
<g mask="url(#mask0_2_2)">
<path d="M248.75 0H0V97H248.75V0Z" fill="#8BBB1E"/>
<path d="M44.9847 48.5501C45.0096 48.5999 44.9348 48.5002 44.9098 48.4005C42.315 42.1167 39.7202 35.8328 37.2003 29.5241C36.8011 28.5516 36.2522 28.3023 35.3291 28.4269C33.4828 28.6763 31.6365 28.8508 29.7902 29.1251C28.1684 29.3496 27.6944 29.8483 27.4449 31.4691C25.7732 41.6179 24.0767 51.7668 22.405 61.9156C22.1805 63.337 22.3302 63.6861 23.5777 64.4092C23.9769 64.6336 24.401 64.8082 24.8252 64.9578C27.8191 65.9552 30.888 65.9303 33.9818 65.7557C34.4808 65.7308 34.5806 65.4565 34.6055 65.0326C34.6305 63.6113 34.7552 62.165 34.7303 60.7436C34.6554 56.6791 34.5307 52.6146 34.4309 48.575C34.4309 48.3007 34.4309 48.0514 34.4309 47.5526C34.6305 47.8519 34.7303 47.9267 34.7552 48.0264C36.8261 53.9362 39.82 59.3971 42.5396 65.0077C42.839 65.6061 43.2382 65.9303 43.837 65.9303C44.8849 65.9303 45.9577 65.9053 46.9807 65.7308C47.9038 65.5812 48.6024 65.0077 49.0266 64.085C51.0974 59.3722 52.7441 54.5097 53.792 49.4478C53.8419 49.1984 53.9417 48.949 53.9916 48.7246C54.0914 48.7496 54.2161 48.7496 54.3159 48.7745C54.3159 50.3704 54.2161 51.9663 54.3409 53.5622C54.6403 57.5269 55.0644 61.4668 55.4387 65.4066C55.4636 65.7557 55.4886 66.1547 56.0375 66.1547C58.0834 66.1298 60.1542 66.2295 62.2001 66.0799C63.5973 65.9801 64.9695 65.5313 65.9675 64.4341C66.217 64.1598 66.3667 63.6611 66.2919 63.337C65.3937 58.4994 64.5204 53.6619 63.5224 48.8493C62.1502 42.2663 60.6782 35.7331 59.2311 29.175C59.1812 28.9506 58.9317 28.6514 58.757 28.6264C56.4117 28.5267 54.0664 28.4519 51.8209 29.3745C50.7481 29.7984 49.9996 30.4966 49.6753 31.6436C48.1533 37.2791 46.5565 42.9395 44.9847 48.5501Z" fill="#546B00"/>
<path d="M175.797 46.6549C179.714 42.1914 183.631 37.7029 187.673 33.0649C186.95 32.5412 186.301 31.9178 185.552 31.4939C183.457 30.3219 181.161 29.7484 178.841 29.1998C177.843 28.9754 177.269 29.2497 176.695 30.0227C174.2 33.5137 171.63 36.9549 169.11 40.4209C168.911 40.6703 168.711 40.9196 168.512 41.169C168.362 40.77 168.387 40.4459 168.412 40.1466C168.711 36.8052 169.011 33.4888 169.335 30.1474C169.41 29.4741 169.185 29.2497 168.512 29.2248C165.617 29.15 162.723 29.0502 159.854 28.9006C159.106 28.8757 158.931 29.125 158.931 29.8232C158.831 41.3685 158.706 52.9387 158.582 64.4839C158.582 65.0824 158.706 65.3317 159.33 65.4315C162.973 66.005 166.64 65.8055 170.283 65.5811C170.832 65.5561 170.832 65.2569 170.807 64.833C170.632 62.8132 170.433 60.7934 170.333 58.7736C170.258 57.3772 170.308 55.9559 170.308 54.4348C171.131 55.4572 171.93 56.4297 172.703 57.4022C174.849 60.1202 176.995 62.8382 179.165 65.5063C179.365 65.7556 179.789 66.0299 180.038 66.005C183.032 65.5561 185.927 64.7831 188.521 63.2122C189.07 62.8631 189.519 62.3644 189.969 61.9654C185.178 56.8037 180.463 51.7168 175.797 46.6549Z" fill="#546B00"/>
<path d="M110.628 53.9609C109.405 54.2352 108.332 54.3848 107.31 54.709C106.336 55.0082 105.663 55.7064 105.538 56.8036C105.413 57.9257 106.037 58.6489 106.885 59.1974C109.355 60.7933 111.925 60.8432 114.52 59.4967C115.493 58.9979 116.217 58.3247 116.142 57.1028C116.067 55.881 115.318 55.1578 114.271 54.8087C113.048 54.4347 111.776 54.2352 110.628 53.9609Z" fill="#546B00"/>
<path d="M117.015 70.7428C120.333 70.7927 123.178 68.7479 123.976 66.1546C124.076 65.8055 124.076 65.4065 124.051 65.0574C124.051 64.9078 123.851 64.7083 123.702 64.6585C123.602 64.6086 123.377 64.7333 123.277 64.8579C123.103 65.0824 123.003 65.3567 122.853 65.606C121.481 68.0497 119.535 69.4212 116.591 68.9225C115.493 68.723 114.37 68.6232 113.297 68.3489C111.301 67.8253 109.355 67.8502 107.359 68.2741C106.436 68.4736 105.488 68.5734 104.565 68.6981C102.843 68.9225 101.122 68.8975 99.8245 67.5759C99.076 66.8279 98.5521 65.8554 97.9034 64.9826C97.7038 64.7083 97.4294 64.5088 97.1799 64.2844C97.0551 64.6335 96.9553 64.9826 96.8555 65.3317C96.8306 65.4315 96.8805 65.5561 96.9054 65.6559C97.5042 68.2492 100.398 70.6181 103.068 70.5184C104.64 70.4685 106.212 70.2441 107.734 69.9698C109.505 69.6207 111.227 69.6705 112.998 70.0695C114.52 70.3937 116.092 70.5932 117.015 70.7428Z" fill="#546B00"/>
<path d="M226.221 32.8405C225.996 33.0898 225.772 33.3392 225.572 33.5885C221.73 39.1243 217.863 44.66 214.045 50.2207C213.796 50.5947 213.721 51.1682 213.721 51.642C213.796 55.4073 213.945 59.1975 213.97 62.9628C213.995 65.4315 213.796 65.7556 211.351 66.1047C208.431 66.5286 205.512 66.7281 202.568 66.9775C201.445 67.0772 201.271 66.6284 201.396 65.5063C201.72 62.6137 201.969 59.6963 202.169 56.8037C202.319 54.7839 202.369 52.7392 202.394 50.7194C202.394 50.3454 202.194 49.8965 201.944 49.5973C197.928 44.3857 194.31 38.8999 191.091 33.1646C190.742 32.5163 190.817 32.1672 191.316 31.7184C193.312 30.0477 195.707 29.3245 198.177 28.7759C200.497 28.2523 200.547 28.2772 201.845 30.2472C203.791 33.2394 205.687 36.2567 207.633 39.2739C207.808 39.5232 207.957 39.7975 208.182 40.1466C208.407 39.8474 208.581 39.6479 208.731 39.4235C211.126 35.8078 213.546 32.1921 215.916 28.5515C216.316 27.9531 216.765 27.7536 217.413 27.978C219.21 28.6014 221.056 29.15 222.828 29.8731C224.175 30.4217 225.347 31.3194 226.246 32.5163C226.221 32.616 226.221 32.7407 226.221 32.8405Z" fill="#546B00"/>
<path d="M44.9847 48.5499C46.5565 42.9393 48.1533 37.2789 49.7251 31.5936C50.0495 30.4216 50.798 29.7483 51.8708 29.3244C54.1163 28.4018 56.4616 28.5015 58.8069 28.5763C58.9816 28.5763 59.2311 28.9005 59.281 29.1249C60.7281 35.683 62.2001 42.2162 63.5723 48.7992C64.5703 53.6118 65.4436 58.4493 66.3418 63.2869C66.4166 63.636 66.242 64.1347 65.9925 64.3841C64.6951 65.8054 55.7131 67.8751 55.4636 65.3815C55.0894 61.4416 54.6652 57.4769 54.3658 53.537C54.2411 51.9411 54.3409 50.3452 54.3409 48.7493C54.2411 48.7244 54.1163 48.7244 54.0165 48.6995C53.9417 48.9488 53.8668 49.1733 53.8169 49.4226C52.7441 54.4846 51.1223 59.347 49.0515 64.0599C48.6523 64.9825 47.9537 65.556 47.0056 65.7056C45.9827 65.8802 44.9098 65.8802 43.8619 65.9051C43.2631 65.9051 42.8639 65.6059 42.5645 64.9825C39.845 59.372 36.851 53.911 34.7802 48.0013C34.7552 47.9015 34.6554 47.8267 34.4558 47.5275C34.4558 48.0262 34.4558 48.2756 34.4558 48.5499C34.5556 52.6144 34.6804 56.654 34.7552 60.7185C34.7802 62.1398 34.6554 63.5861 34.6305 65.0074C34.6305 65.4314 34.5307 65.7056 34.0067 65.7306C30.9129 65.9051 27.8191 65.9301 24.8501 64.9326C24.4259 64.783 24.0018 64.6085 23.6026 64.3841C22.3551 63.6609 22.2054 63.3118 22.43 61.8905C24.1016 51.7416 25.7982 41.5928 27.4698 31.4439C27.7443 29.8231 28.2183 29.3244 29.8151 29.1C31.6614 28.8506 33.5077 28.6511 35.354 28.4018C36.2772 28.2771 36.851 28.5265 37.2252 29.499C39.7452 35.8077 42.3649 42.0915 44.9348 48.3753C44.9348 48.5249 45.0096 48.5997 44.9847 48.5499Z" fill="#546B00"/>
<path d="M175.797 46.6549C180.488 51.7169 185.178 56.7788 189.993 61.9904C189.544 62.3894 189.095 62.8881 188.546 63.2372C185.952 64.8331 183.057 65.6061 180.063 66.03C179.789 66.0799 179.39 65.7806 179.19 65.5313C177.02 62.8382 174.874 60.1202 172.728 57.4272C171.955 56.4547 171.156 55.4822 170.333 54.4598C170.333 55.9809 170.283 57.4022 170.358 58.7986C170.458 60.8184 170.657 62.8382 170.832 64.858C170.857 65.2819 170.857 65.5812 170.308 65.6061C166.64 65.8305 162.998 66.03 159.355 65.4565C158.731 65.3567 158.582 65.1074 158.607 64.5089C158.731 52.9637 158.856 41.3935 158.956 29.8483C158.956 29.1501 159.155 28.8758 159.879 28.9256C162.773 29.0752 165.642 29.175 168.537 29.2498C169.235 29.2747 169.435 29.5241 169.36 30.1724C169.036 33.4889 168.736 36.8303 168.437 40.1716C168.412 40.4709 168.387 40.795 168.537 41.194C168.736 40.9447 168.936 40.6953 169.135 40.4459C171.68 36.9799 174.225 33.5387 176.72 30.0477C177.294 29.2498 177.868 28.9755 178.866 29.2249C181.186 29.7734 183.482 30.322 185.577 31.5189C186.326 31.9429 186.975 32.5413 187.698 33.0899C183.631 37.703 179.689 42.1914 175.797 46.6549Z" fill="#546B00"/>
<path d="M110.628 54.2353C111.85 54.2353 113.098 54.4597 114.271 54.8337C115.318 55.1828 116.092 55.9059 116.142 57.1278C116.217 58.3496 115.493 59.0229 114.52 59.5216C111.925 60.8432 109.355 60.8183 106.885 59.2224C106.037 58.6738 105.413 57.9507 105.538 56.8286C105.663 55.7314 106.336 55.0332 107.31 54.734C108.382 54.3849 109.505 54.2103 110.628 54.2353Z" fill="#546B00"/>
<path d="M117.065 70.7428C117.04 70.7428 117.015 70.7428 116.99 70.7428C116.042 70.5932 114.52 70.3937 112.998 70.0446C111.227 69.6706 109.505 69.6207 107.734 69.9449C106.187 70.2441 104.615 70.4436 103.068 70.4935C100.523 70.5932 97.13 67.9251 96.9553 65.1822C96.9304 64.7333 97.5541 64.5588 97.8286 64.8829C98.5521 65.7058 99.0511 66.7531 99.8246 67.5511C101.147 68.8727 102.843 68.8727 104.565 68.6732C105.488 68.5485 106.436 68.4487 107.359 68.2493C109.355 67.8253 111.302 67.8004 113.298 68.3241C114.37 68.5984 115.493 68.723 116.591 68.8976C119.535 69.3963 121.456 68.0248 122.853 65.5811C123.003 65.3318 123.103 65.0575 123.277 64.8331C123.377 64.7084 123.602 64.5837 123.702 64.6336C123.851 64.6834 124.051 64.8829 124.051 65.0325C124.076 65.4066 124.076 65.7806 123.976 66.1297C123.178 68.723 120.358 70.7927 117.065 70.7428Z" fill="#546B00"/>
<path d="M76.1221 54.36C76.1221 54.335 76.1221 54.2104 76.1471 54.0857C76.2968 52.9386 77.195 51.9661 78.1431 51.9412C79.0912 51.9163 79.9395 52.789 80.1391 53.961C80.164 54.1106 80.189 54.2353 80.189 54.3849C80.2389 55.7813 79.2908 57.0032 78.168 57.0281C77.0702 57.053 76.0972 55.8312 76.1221 54.36Z" fill="#546B00"/>
<path d="M143.362 43.8371C145.167 43.8371 146.631 42.0955 146.631 39.9471C146.631 37.7987 145.167 36.0571 143.362 36.0571C141.557 36.0571 140.094 37.7987 140.094 39.9471C140.094 42.0955 141.557 43.8371 143.362 43.8371Z" fill="#546B00"/>
<path d="M138.073 28.2024C129.016 28.2024 121.656 36.7803 121.656 47.353C121.656 57.9258 129.016 66.5037 138.073 66.5037C147.13 66.5037 154.49 57.9258 154.49 47.353C154.49 36.7803 147.155 28.2024 138.073 28.2024ZM146.531 47.4777C146.531 53.4623 142.664 58.3248 137.898 58.3248C136.75 58.3248 135.653 58.0255 134.63 57.5268C134.081 58.0006 133.382 58.2749 132.634 58.2749C130.787 58.2749 129.265 56.5793 129.265 54.4847C129.265 53.562 129.565 52.7142 130.039 52.041C129.54 50.6446 129.24 49.1235 129.24 47.5026C129.24 41.5181 133.108 36.6556 137.873 36.6556C138.422 36.6556 138.971 36.7304 139.495 36.8551C140.368 35.5086 141.74 34.6358 143.337 34.6358C145.957 34.6358 148.078 37.0296 148.078 39.997C148.078 41.7674 147.304 43.3384 146.132 44.3109C146.406 45.2834 146.531 46.3556 146.531 47.4777Z" fill="#546B00"/>
<path d="M132.609 57.3771C133.89 57.3771 134.929 56.0821 134.929 54.4846C134.929 52.8871 133.89 51.592 132.609 51.592C131.327 51.592 130.288 52.8871 130.288 54.4846C130.288 56.0821 131.327 57.3771 132.609 57.3771Z" fill="#546B00"/>
<path d="M88.5971 43.8371C90.4022 43.8371 91.8655 42.0955 91.8655 39.9471C91.8655 37.7987 90.4022 36.0571 88.5971 36.0571C86.792 36.0571 85.3287 37.7987 85.3287 39.9471C85.3287 42.0955 86.792 43.8371 88.5971 43.8371Z" fill="#546B00"/>
<path d="M83.3077 28.2024C74.2509 28.2024 66.8907 36.7803 66.8907 47.353C66.8907 57.9258 74.2509 66.5037 83.3077 66.5037C92.3645 66.5037 99.7248 57.9258 99.7248 47.353C99.7248 36.7803 92.3645 28.2024 83.3077 28.2024ZM91.7657 47.4777C91.7657 53.4623 87.8985 58.3248 83.1331 58.3248C81.9854 58.3248 80.8876 58.0255 79.8646 57.5268C79.3157 58.0006 78.6171 58.2749 77.8686 58.2749C76.0223 58.2749 74.5004 56.5793 74.5004 54.4847C74.5004 53.562 74.7998 52.7142 75.2738 52.041C74.7749 50.6446 74.4755 49.1235 74.4755 47.5026C74.4755 41.5181 78.3427 36.6556 83.1081 36.6556C83.657 36.6556 84.2059 36.7304 84.7299 36.8551C85.6031 35.5086 86.9753 34.6358 88.5721 34.6358C91.1919 34.6358 93.3126 37.0296 93.3126 39.997C93.3126 41.7674 92.5392 43.3384 91.3665 44.3109C91.616 45.2834 91.7657 46.3556 91.7657 47.4777Z" fill="#546B00"/>
<path d="M77.8187 57.3771C79.1002 57.3771 80.1391 56.0821 80.1391 54.4846C80.1391 52.8871 79.1002 51.592 77.8187 51.592C76.5372 51.592 75.4984 52.8871 75.4984 54.4846C75.4984 56.0821 76.5372 57.3771 77.8187 57.3771Z" fill="#546B00"/>
<path d="M44.9847 45.5576C45.0096 45.6075 44.9348 45.5078 44.9098 45.408C42.315 39.1242 39.7202 32.8404 37.2003 26.5317C36.8011 25.5592 36.2522 25.3098 35.3291 25.4345C33.4828 25.6839 31.6365 25.8584 29.7902 26.1327C28.1684 26.3571 27.6944 26.8558 27.4449 28.4767C25.7732 38.6255 24.0767 48.7743 22.405 58.9232C22.1805 60.3445 22.3302 60.6936 23.5777 61.4168C23.9769 61.6412 24.401 61.8157 24.8252 61.9654C27.8191 62.9628 30.888 62.9378 33.9818 62.7633C34.4808 62.7384 34.5806 62.4641 34.6055 62.0402C34.6305 60.6188 34.7552 59.1725 34.7303 57.7512C34.6554 53.6867 34.5307 49.6222 34.4309 45.5826C34.4309 45.3083 34.4309 45.0589 34.4309 44.5602C34.6305 44.8594 34.7303 44.9342 34.7552 45.034C36.8261 50.9438 39.82 56.4047 42.5396 62.0152C42.839 62.6137 43.2382 62.9379 43.837 62.9379C44.8849 62.9379 45.9577 62.9129 46.9807 62.7384C47.9038 62.5887 48.6024 62.0152 49.0266 61.0926C51.0974 56.3797 52.7441 51.5173 53.792 46.4553C53.8419 46.206 53.9417 45.9566 53.9916 45.7322C54.0914 45.7571 54.2161 45.7571 54.3159 45.7821C54.3159 47.378 54.2161 48.9738 54.3409 50.5697C54.6403 54.5345 55.0644 58.4743 55.4387 62.4142C55.4636 62.7633 55.4886 63.1623 56.0375 63.1623C58.0834 63.1373 60.1542 63.2371 62.2001 63.0875C63.5973 62.9877 64.9695 62.5389 65.9675 61.4417C66.217 61.1674 66.3667 60.6687 66.2919 60.3445C65.3937 55.507 64.5204 50.6695 63.5224 45.8569C62.1502 39.2738 60.6782 32.7407 59.2311 26.1826C59.1812 25.9582 58.9317 25.6589 58.757 25.634C56.4117 25.5342 54.0664 25.4594 51.8209 26.3821C50.7481 26.806 49.9996 27.5042 49.6753 28.6512C48.1533 34.2867 46.5565 39.9471 44.9847 45.5576Z" fill="white"/>
<path d="M175.797 43.6624C179.714 39.1989 183.631 34.7105 187.673 30.0724C186.95 29.5488 186.301 28.9254 185.552 28.5015C183.457 27.3295 181.161 26.756 178.841 26.2074C177.843 25.983 177.269 26.2573 176.695 27.0303C174.2 30.5213 171.63 33.9624 169.11 37.4285C168.911 37.6778 168.711 37.9272 168.512 38.1766C168.362 37.7776 168.387 37.4534 168.412 37.1542C168.711 33.8128 169.011 30.4964 169.335 27.155C169.41 26.4817 169.185 26.2573 168.512 26.2323C165.617 26.1575 162.723 26.0578 159.854 25.9082C159.106 25.8832 158.931 26.1326 158.931 26.8308C158.831 38.376 158.706 49.9462 158.582 61.4915C158.582 62.0899 158.706 62.3393 159.33 62.439C162.973 63.0126 166.64 62.8131 170.283 62.5886C170.832 62.5637 170.832 62.2645 170.807 61.8406C170.632 59.8208 170.433 57.801 170.333 55.7812C170.258 54.3848 170.308 52.9634 170.308 51.4424C171.131 52.4647 171.93 53.4372 172.703 54.4097C174.849 57.1277 176.995 59.8457 179.165 62.5138C179.365 62.7632 179.789 63.0375 180.038 63.0126C183.032 62.5637 185.927 61.7907 188.521 60.2197C189.07 59.8706 189.519 59.3719 189.969 58.973C185.178 53.8113 180.463 48.7244 175.797 43.6624Z" fill="white"/>
<path d="M110.628 50.9685C109.405 51.2428 108.332 51.3924 107.31 51.7166C106.336 52.0158 105.663 52.714 105.538 53.8112C105.413 54.9333 106.037 55.6564 106.885 56.205C109.355 57.8009 111.925 57.8508 114.52 56.5042C115.493 56.0055 116.217 55.3323 116.142 54.1104C116.067 52.8886 115.318 52.1654 114.271 51.8163C113.048 51.4423 111.776 51.2428 110.628 50.9685Z" fill="white"/>
<path d="M117.015 67.7504C120.333 67.8002 123.178 65.7555 123.976 63.1622C124.076 62.8131 124.076 62.4141 124.051 62.065C124.051 61.9154 123.851 61.7159 123.702 61.666C123.602 61.6162 123.377 61.7408 123.277 61.8655C123.103 62.0899 123.003 62.3642 122.853 62.6136C121.481 65.0573 119.535 66.4288 116.591 65.93C115.493 65.7306 114.37 65.6308 113.297 65.3565C111.301 64.8329 109.355 64.8578 107.359 65.2817C106.436 65.4812 105.488 65.5809 104.565 65.7056C102.843 65.93 101.122 65.9051 99.8245 64.5835C99.076 63.8354 98.5521 62.8629 97.9034 61.9902C97.7038 61.7159 97.4294 61.5164 97.1799 61.292C97.0551 61.6411 96.9553 61.9902 96.8555 62.3393C96.8306 62.439 96.8805 62.5637 96.9054 62.6635C97.5042 65.2568 100.398 67.6257 103.068 67.5259C104.64 67.4761 106.212 67.2516 107.734 66.9773C109.505 66.6282 111.227 66.6781 112.998 67.0771C114.52 67.4012 116.092 67.6007 117.015 67.7504Z" fill="white"/>
<path d="M226.221 29.848C225.996 30.0974 225.772 30.3468 225.572 30.5961C221.73 36.1318 217.863 41.6676 214.045 47.2282C213.796 47.6023 213.721 48.1758 213.721 48.6496C213.796 52.4149 213.945 56.2051 213.97 59.9704C213.995 62.439 213.796 62.7632 211.351 63.1123C208.431 63.5362 205.512 63.7357 202.568 63.9851C201.445 64.0848 201.271 63.636 201.396 62.5139C201.72 59.6213 201.969 56.7038 202.169 53.8113C202.319 51.7915 202.369 49.7468 202.394 47.727C202.394 47.3529 202.194 46.9041 201.944 46.6048C197.928 41.3933 194.31 35.9074 191.091 30.1722C190.742 29.5239 190.817 29.1748 191.316 28.7259C193.312 27.0552 195.707 26.3321 198.177 25.7835C200.497 25.2599 200.547 25.2848 201.845 27.2547C203.791 30.247 205.687 33.2642 207.633 36.2815C207.808 36.5308 207.957 36.8051 208.182 37.1542C208.407 36.855 208.581 36.6555 208.731 36.4311C211.126 32.8154 213.546 29.1997 215.916 25.5591C216.316 24.9606 216.765 24.7612 217.413 24.9856C219.21 25.609 221.056 26.1575 222.828 26.8807C224.175 27.4293 225.347 28.327 226.246 29.5239C226.221 29.6236 226.221 29.7483 226.221 29.848Z" fill="white"/>
<path d="M44.9847 45.5574C46.5565 39.9469 48.1533 34.2865 49.7251 28.6011C50.0495 27.4292 50.798 26.7559 51.8708 26.332C54.1163 25.4094 56.4616 25.5091 58.8069 25.5839C58.9816 25.5839 59.2311 25.9081 59.281 26.1325C60.7281 32.6906 62.2001 39.2238 63.5723 45.8068C64.5703 50.6194 65.4436 55.4569 66.3418 60.2944C66.4166 60.6435 66.242 61.1423 65.9925 61.3916C64.6951 62.813 55.7131 64.8826 55.4636 62.389C55.0894 58.4492 54.6652 54.4844 54.3658 50.5446C54.2411 48.9487 54.3409 47.3528 54.3409 45.7569C54.2411 45.732 54.1163 45.732 54.0165 45.707C53.9417 45.9564 53.8668 46.1808 53.8169 46.4302C52.7441 51.4921 51.1223 56.3546 49.0515 61.0675C48.6523 61.9901 47.9537 62.5636 47.0056 62.7132C45.9827 62.8878 44.9098 62.8878 43.8619 62.9127C43.2631 62.9127 42.8639 62.6135 42.5645 61.9901C39.845 56.3795 36.851 50.9186 34.7802 45.0088C34.7552 44.9091 34.6554 44.8343 34.4558 44.5351C34.4558 45.0338 34.4558 45.2831 34.4558 45.5574C34.5556 49.622 34.6804 53.6615 34.7552 57.7261C34.7802 59.1474 34.6554 60.5937 34.6305 62.015C34.6305 62.4389 34.5307 62.7132 34.0067 62.7381C30.9129 62.9127 27.8191 62.9376 24.8501 61.9402C24.4259 61.7906 24.0018 61.616 23.6026 61.3916C22.3551 60.6685 22.2054 60.3194 22.43 58.898C24.1016 48.7492 25.7982 38.6004 27.4698 28.4515C27.7443 26.8307 28.2183 26.332 29.8151 26.1076C31.6614 25.8582 33.5077 25.6587 35.354 25.4094C36.2772 25.2847 36.851 25.534 37.2252 26.5065C39.7452 32.8153 42.3649 39.0991 44.9348 45.3829C44.9348 45.5325 45.0096 45.6073 44.9847 45.5574Z" fill="white"/>
<path d="M175.797 43.6625C180.488 48.7245 185.178 53.7864 189.993 58.998C189.544 59.3969 189.095 59.8957 188.546 60.2448C185.952 61.8407 183.057 62.6137 180.063 63.0376C179.789 63.0874 179.39 62.7882 179.19 62.5389C177.02 59.8458 174.874 57.1278 172.728 54.4347C171.955 53.4622 171.156 52.4898 170.333 51.4674C170.333 52.9885 170.283 54.4098 170.358 55.8062C170.458 57.826 170.657 59.8458 170.832 61.8656C170.857 62.2895 170.857 62.5887 170.308 62.6137C166.64 62.8381 162.998 63.0376 159.355 62.4641C158.731 62.3643 158.582 62.115 158.607 61.5165C158.731 49.9713 158.856 38.4011 158.956 26.8558C158.956 26.1576 159.155 25.8833 159.879 25.9332C162.773 26.0828 165.642 26.1826 168.537 26.2574C169.235 26.2823 169.435 26.5317 169.36 27.18C169.036 30.4964 168.736 33.8378 168.437 37.1792C168.412 37.4784 168.387 37.8026 168.537 38.2016C168.736 37.9522 168.936 37.7029 169.135 37.4535C171.68 33.9874 174.225 30.5463 176.72 27.0553C177.294 26.2574 177.868 25.9831 178.866 26.2324C181.186 26.781 183.482 27.3296 185.577 28.5265C186.326 28.9504 186.975 29.5489 187.698 30.0975C183.631 34.7106 179.689 39.199 175.797 43.6625Z" fill="white"/>
<path d="M110.628 51.2428C111.85 51.2428 113.098 51.4673 114.271 51.8413C115.318 52.1904 116.092 52.9135 116.142 54.1354C116.217 55.3572 115.493 56.0305 114.52 56.5292C111.925 57.8508 109.355 57.8259 106.885 56.23C106.037 55.6814 105.413 54.9583 105.538 53.8361C105.663 52.739 106.336 52.0408 107.31 51.7415C108.382 51.3924 109.505 51.2179 110.628 51.2428Z" fill="white"/>
<path d="M117.065 67.7504C117.04 67.7504 117.015 67.7504 116.99 67.7504C116.042 67.6008 114.52 67.4013 112.998 67.0522C111.227 66.6782 109.505 66.6283 107.734 66.9525C106.187 67.2517 104.615 67.4512 103.068 67.501C100.523 67.6008 97.13 64.9327 96.9553 62.1897C96.9304 61.7409 97.5541 61.5663 97.8286 61.8905C98.5521 62.7134 99.0511 63.7607 99.8246 64.5586C101.147 65.8802 102.843 65.8802 104.565 65.6807C105.488 65.5561 106.436 65.4563 107.359 65.2568C109.355 64.8329 111.302 64.808 113.298 65.3316C114.37 65.6059 115.493 65.7306 116.591 65.9051C119.535 66.4039 121.456 65.0324 122.853 62.5887C123.003 62.3393 123.103 62.065 123.277 61.8406C123.377 61.7159 123.602 61.5913 123.702 61.6411C123.851 61.691 124.051 61.8905 124.051 62.0401C124.076 62.4141 124.076 62.7882 123.976 63.1373C123.178 65.7306 120.358 67.8003 117.065 67.7504Z" fill="white"/>
<path d="M76.1221 51.3675C76.1221 51.3426 76.1221 51.2179 76.1471 51.0932C76.2968 49.9462 77.195 48.9737 78.1431 48.9488C79.0912 48.9238 79.9395 49.7966 80.1391 50.9686C80.164 51.1182 80.189 51.2428 80.189 51.3925C80.2389 52.7889 79.2908 54.0107 78.168 54.0357C77.0702 54.0606 76.0972 52.8387 76.1221 51.3675Z" fill="white"/>
<path d="M143.362 40.8446C145.167 40.8446 146.631 39.103 146.631 36.9547C146.631 34.8063 145.167 33.0647 143.362 33.0647C141.557 33.0647 140.094 34.8063 140.094 36.9547C140.094 39.103 141.557 40.8446 143.362 40.8446Z" fill="white"/>
<path d="M138.073 25.21C129.016 25.21 121.656 33.7879 121.656 44.3606C121.656 54.9334 129.016 63.5112 138.073 63.5112C147.13 63.5112 154.49 54.9334 154.49 44.3606C154.49 33.7879 147.155 25.21 138.073 25.21ZM146.531 44.4853C146.531 50.4699 142.664 55.3323 137.898 55.3323C136.75 55.3323 135.653 55.0331 134.63 54.5344C134.081 55.0082 133.382 55.2825 132.634 55.2825C130.787 55.2825 129.265 53.5868 129.265 51.4922C129.265 50.5696 129.565 49.7218 130.039 49.0485C129.54 47.6521 129.24 46.131 129.24 44.5102C129.24 38.5256 133.108 33.6632 137.873 33.6632C138.422 33.6632 138.971 33.738 139.495 33.8627C140.368 32.5161 141.74 31.6434 143.337 31.6434C145.957 31.6434 148.078 34.0372 148.078 37.0046C148.078 38.775 147.304 40.346 146.132 41.3184C146.406 42.2909 146.531 43.3632 146.531 44.4853Z" fill="white"/>
<path d="M132.609 54.3847C133.89 54.3847 134.929 53.0897 134.929 51.4922C134.929 49.8946 133.89 48.5996 132.609 48.5996C131.327 48.5996 130.288 49.8946 130.288 51.4922C130.288 53.0897 131.327 54.3847 132.609 54.3847Z" fill="white"/>
<path d="M88.5971 40.8446C90.4022 40.8446 91.8655 39.103 91.8655 36.9547C91.8655 34.8063 90.4022 33.0647 88.5971 33.0647C86.792 33.0647 85.3287 34.8063 85.3287 36.9547C85.3287 39.103 86.792 40.8446 88.5971 40.8446Z" fill="white"/>
<path d="M83.3077 25.21C74.2509 25.21 66.8907 33.7879 66.8907 44.3606C66.8907 54.9334 74.2509 63.5112 83.3077 63.5112C92.3645 63.5112 99.7248 54.9334 99.7248 44.3606C99.7248 33.7879 92.3645 25.21 83.3077 25.21ZM91.7657 44.4853C91.7657 50.4699 87.8985 55.3323 83.1331 55.3323C81.9854 55.3323 80.8876 55.0331 79.8646 54.5344C79.3157 55.0082 78.6171 55.2825 77.8686 55.2825C76.0223 55.2825 74.5004 53.5868 74.5004 51.4922C74.5004 50.5696 74.7998 49.7218 75.2738 49.0485C74.7749 47.6521 74.4755 46.131 74.4755 44.5102C74.4755 38.5256 78.3427 33.6632 83.1081 33.6632C83.657 33.6632 84.2059 33.738 84.7299 33.8627C85.6031 32.5161 86.9753 31.6434 88.5721 31.6434C91.1919 31.6434 93.3126 34.0372 93.3126 37.0046C93.3126 38.775 92.5392 40.346 91.3665 41.3184C91.616 42.2909 91.7657 43.3632 91.7657 44.4853Z" fill="white"/>
<path d="M77.8187 54.3847C79.1002 54.3847 80.1391 53.0897 80.1391 51.4922C80.1391 49.8946 79.1002 48.5996 77.8187 48.5996C76.5372 48.5996 75.4984 49.8946 75.4984 51.4922C75.4984 53.0897 76.5372 54.3847 77.8187 54.3847Z" fill="white"/>
</g>
</svg>
